<?xml version="1.0" encoding="UTF-8" standalone="no"?>
<!-- Created with Inkscape (http://www.inkscape.org/) -->
<svg
   xmlns:dc="http://purl.org/dc/elements/1.1/"
   xmlns:cc="http://web.resource.org/cc/"
   xmlns:rdf="http://www.w3.org/1999/02/22-rdf-syntax-ns#"
   xmlns:svg="http://www.w3.org/2000/svg"
   xmlns="http://www.w3.org/2000/svg"
   xmlns:xlink="http://www.w3.org/1999/xlink"
   xmlns:sodipodi="http://sodipodi.sourceforge.net/DTD/sodipodi-0.dtd"
   xmlns:inkscape="http://www.inkscape.org/namespaces/inkscape"
   id="svg1975"
   sodipodi:version="0.32"
   inkscape:version="0.44.1"
   width="935"
   height="906"
   version="1.0"
   sodipodi:docbase="/home/algernon/Images"
   sodipodi:docname="brasero.svg">
  <metadata
     id="metadata1980">
    <rdf:RDF>
      <cc:Work
         rdf:about="">
        <dc:format>image/svg+xml</dc:format>
        <dc:type
           rdf:resource="http://purl.org/dc/dcmitype/StillImage" />
      </cc:Work>
    </rdf:RDF>
  </metadata>
  <defs
     id="defs1978">
    <linearGradient
       id="linearGradient17919">
      <stop
         style="stop-color:#c9dbdc;stop-opacity:1.0000000;"
         offset="0.0000000"
         id="stop17920" />
      <stop
         style="stop-color:#e8feff;stop-opacity:0;"
         offset="1"
         id="stop17921" />
    </linearGradient>
    <linearGradient
       inkscape:collect="always"
       xlink:href="#linearGradient17919"
       id="linearGradient17922"
       gradientTransform="scale(0.986726,1.013453)"
       x1="-1042.7228"
       y1="590.30707"
       x2="-421.61072"
       y2="-446.23953"
       gradientUnits="userSpaceOnUse" />
    <linearGradient
       id="linearGradient3376">
      <stop
         style="stop-color:#97ceed;stop-opacity:1.0000000;"
         offset="0.0000000"
         id="stop3377" />
      <stop
         style="stop-color:#000000;stop-opacity:0;"
         offset="1"
         id="stop3378" />
    </linearGradient>
    <linearGradient
       inkscape:collect="always"
       xlink:href="#linearGradient3376"
       id="linearGradient15402"
       gradientUnits="userSpaceOnUse"
       gradientTransform="matrix(0.645823,0,-0.151692,0.569247,112.0775,193.1895)"
       x1="260.34198"
       y1="478.13702"
       x2="683.92963"
       y2="371.08167" />
    <linearGradient
       inkscape:collect="always"
       id="linearGradient8370">
      <stop
         style="stop-color:#a69f9f;stop-opacity:1;"
         offset="0"
         id="stop8371" />
      <stop
         style="stop-color:#a69f9f;stop-opacity:0;"
         offset="1"
         id="stop8372" />
    </linearGradient>
    <linearGradient
       inkscape:collect="always"
       xlink:href="#linearGradient8370"
       id="linearGradient9035"
       gradientUnits="userSpaceOnUse"
       gradientTransform="scale(0.999998,1.000002)"
       x1="636.38989"
       y1="491.93387"
       x2="435.65201"
       y2="667.28345" />
    <linearGradient
       inkscape:collect="always"
       id="linearGradient8374">
      <stop
         style="stop-color:#000000;stop-opacity:1;"
         offset="0"
         id="stop8375" />
      <stop
         style="stop-color:#000000;stop-opacity:0;"
         offset="1"
         id="stop8376" />
    </linearGradient>
    <linearGradient
       inkscape:collect="always"
       xlink:href="#linearGradient8374"
       id="linearGradient9034"
       gradientUnits="userSpaceOnUse"
       gradientTransform="scale(0.999998,1.000002)"
       x1="674.10553"
       y1="493.51120"
       x2="207.07597"
       y2="708.95197" />
    <linearGradient
       id="linearGradient17272">
      <stop
         style="stop-color:#50636d;stop-opacity:1.0000000;"
         offset="0.0000000"
         id="stop17273" />
      <stop
         style="stop-color:#005fff;stop-opacity:0;"
         offset="1"
         id="stop17274" />
    </linearGradient>
    <linearGradient
       inkscape:collect="always"
       xlink:href="#linearGradient17272"
       id="linearGradient17279"
       gradientTransform="matrix(0.601243,0,-0.162939,0.611455,112.0789,192.8074)"
       x1="324.79950"
       y1="952.37708"
       x2="774.19299"
       y2="-195.85306"
       gradientUnits="userSpaceOnUse" />
    <radialGradient
       inkscape:collect="always"
       xlink:href="#linearGradient2981"
       id="radialGradient30007"
       gradientTransform="matrix(0.407275,0,0,0.87647,56.07778,259.1306)"
       cx="427.33289"
       cy="628.95129"
       fx="427.33289"
       fy="628.95129"
       r="1087.5707"
       gradientUnits="userSpaceOnUse" />
    <radialGradient
       inkscape:collect="always"
       xlink:href="#linearGradient28758"
       id="radialGradient25622"
       gradientUnits="userSpaceOnUse"
       gradientTransform="matrix(-0.362657,9.814528e-3,3.58404e-2,0.894262,48.43959,310.5345)"
       spreadMethod="pad"
       cx="-296.89548"
       cy="551.06885"
       fx="-296.89548"
       fy="551.06885"
       r="1544.1836" />
    <radialGradient
       inkscape:collect="always"
       xlink:href="#linearGradient2981"
       id="radialGradient25628"
       gradientUnits="userSpaceOnUse"
       gradientTransform="matrix(0.822782,0,0,0.984758,-354.0423,259.5692)"
       cx="972.45532"
       cy="193.94321"
       fx="972.45532"
       fy="193.94321"
       r="442.80582" />
    <radialGradient
       inkscape:collect="always"
       xlink:href="#linearGradient28758"
       id="radialGradient25627"
       gradientUnits="userSpaceOnUse"
       gradientTransform="matrix(0.822782,0,0,0.984758,-354.0423,259.5692)"
       cx="1036.2932"
       cy="190.23039"
       fx="1036.2932"
       fy="190.23039"
       r="685.56836" />
    <linearGradient
       inkscape:collect="always"
       id="linearGradient2981">
      <stop
         style="stop-color:#f1ac27;stop-opacity:1;"
         offset="0"
         id="stop2982" />
      <stop
         style="stop-color:#f1ac27;stop-opacity:0;"
         offset="1"
         id="stop2983" />
    </linearGradient>
    <radialGradient
       inkscape:collect="always"
       xlink:href="#linearGradient2981"
       id="radialGradient25630"
       gradientUnits="userSpaceOnUse"
       gradientTransform="matrix(-0.419531,-7.944522e-2,-0.160568,0.739222,851.1303,518.5651)"
       cx="370.82047"
       cy="351.99112"
       fx="370.82047"
       fy="351.99112"
       r="1097.1340" />
    <linearGradient
       id="linearGradient28758">
      <stop
         style="stop-color:#f2db38;stop-opacity:1.0000000;"
         offset="0.0000000"
         id="stop28759" />
      <stop
         style="stop-color:#f1f527;stop-opacity:0;"
         offset="1"
         id="stop28760" />
    </linearGradient>
    <radialGradient
       inkscape:collect="always"
       xlink:href="#linearGradient28758"
       id="radialGradient25629"
       gradientUnits="userSpaceOnUse"
       gradientTransform="matrix(-0.419531,-7.944522e-2,-0.160568,0.739222,851.1303,518.5651)"
       cx="417.06598"
       cy="378.58472"
       fx="417.06598"
       fy="378.58472"
       r="2300.4453" />
  </defs>
  <sodipodi:namedview
     inkscape:window-height="949"
     inkscape:window-width="1280"
     inkscape:pageshadow="2"
     inkscape:pageopacity="0.0"
     guidetolerance="10.0"
     gridtolerance="10.0"
     objecttolerance="10.0"
     borderopacity="1.0"
     bordercolor="#666666"
     pagecolor="#ffffff"
     id="base"
     inkscape:zoom="0.63530344"
     inkscape:cx="467.5"
     inkscape:cy="378.3929"
     inkscape:window-x="0"
     inkscape:window-y="25"
     inkscape:current-layer="svg1975" />
  <path
     sodipodi:type="arc"
     style="opacity:0.13225806;fill:#030000;fill-opacity:1;fill-rule:nonzero;stroke:black;stroke-width:50.00524902;stroke-linecap:square;stroke-linejoin:round;stroke-miterlimit:4;stroke-dasharray:none;stroke-dashoffset:0;stroke-opacity:1"
     id="path1736"
     sodipodi:cx="619.01373"
     sodipodi:cy="676.63525"
     sodipodi:rx="506.72754"
     sodipodi:ry="505.28796"
     d="M 114.35907,722.29239 A 506.72754,505.28796 0 1 1 116.68438,743.06444"
     sodipodi:start="3.0511106"
     sodipodi:end="9.2929283"
     sodipodi:open="true"
     transform="matrix(0.600865,0,-0.16317,0.612323,216.7171,139.6233)" />
  <path
     style="fill:url(#radialGradient25629);fill-opacity:1;fill-rule:nonzero;stroke:url(#radialGradient25630);stroke-width:31.258;stroke-linecap:round;stroke-linejoin:round;stroke-miterlimit:4;stroke-opacity:1;stroke-dasharray:none;opacity:1"
     d="M 636.68485,127.43463 C 782.54807,593.84773 565.95176,739.34529 565.95176,739.34529 C 498.52171,801.68473 774.61278,907.72579 852.10685,578.13057 C 921.31247,246.68768 511.80493,-83.297049 636.68485,127.43463 z "
     id="path1066"
     sodipodi:nodetypes="cccc" />
  <path
     sodipodi:type="arc"
     style="fill:white;fill-opacity:1;fill-rule:nonzero;stroke:none;stroke-width:0;stroke-linecap:square;stroke-linejoin:round;stroke-miterlimit:4;stroke-dashoffset:0;stroke-opacity:1"
     id="path17923"
     sodipodi:cx="-638.47455"
     sodipodi:cy="208.06361"
     sodipodi:rx="672.07843"
     sodipodi:ry="690.28058"
     d="M -1307.8037,270.43643 A 672.07843,690.28058 0 1 1 -1307.1781,277.15372"
     sodipodi:start="3.0511106"
     sodipodi:end="9.3245202"
     sodipodi:open="true"
     transform="matrix(0.465908,0,-0.122837,0.460965,759.5604,422.2851)" />
  <path
     sodipodi:type="arc"
     style="fill:url(#linearGradient17922);fill-opacity:1;fill-rule:nonzero;stroke:none;stroke-width:0;stroke-linecap:square;stroke-linejoin:round;stroke-miterlimit:4;stroke-dashoffset:0;stroke-opacity:1"
     id="path14128"
     sodipodi:cx="-638.47455"
     sodipodi:cy="208.06361"
     sodipodi:rx="672.07843"
     sodipodi:ry="690.28058"
     d="M -1307.8037,270.43643 A 672.07843,690.28058 0 1 1 -1307.1781,277.15372"
     sodipodi:start="3.0511106"
     sodipodi:end="9.3245202"
     sodipodi:open="true"
     transform="matrix(0.475416,0,-0.125344,0.470373,766.865,413.8328)" />
  <path
     style="fill:white;fill-opacity:1;fill-rule:nonzero;stroke:none;stroke-width:50;stroke-linecap:square;stroke-linejoin:round;stroke-miterlimit:4;stroke-dashoffset:0;stroke-opacity:1"
     d="M 483.56792,219.62054 C 424.51384,226.08558 362.81945,250.07058 308.85364,288.47789 C 253.08515,327.23237 206.99167,380.82573 176.73637,438.85622 C 314.0532,553.03022 323.628,560.78081 356.27194,554.41425 L 356.2735,554.33783 C 354.65072,513.74987 388.17873,470.43585 431.12885,457.67019 C 454.91545,450.60033 476.60088,454.42621 491.51308,466.09348 C 497.44431,451.05291 501.28474,435.02019 502.14118,419.29728 L 509.09884,291.68678 C 510.86038,259.34874 500.68272,233.3611 483.56792,219.62054 z "
     id="path18549" />
  <path
     style="fill:url(#linearGradient15402);fill-opacity:1;fill-rule:nonzero;stroke:none;stroke-width:50;stroke-linecap:square;stroke-linejoin:round;stroke-miterlimit:4;stroke-dashoffset:0;stroke-opacity:1"
     d="M 483.63402,219.1661 C 424.57991,225.63114 362.88554,249.61614 308.91971,288.02345 C 253.15123,326.77793 207.05775,380.37129 176.80245,438.40178 C 314.11928,552.57586 323.69407,560.32637 356.33802,553.95981 L 356.33958,553.88339 C 354.71679,513.29543 388.24481,469.98141 431.19494,457.21575 C 454.98155,450.14589 476.66698,453.97177 491.57917,465.63904 C 497.5104,450.59847 501.35078,434.56575 502.20728,418.84284 L 509.16488,291.23234 C 510.92649,258.89429 500.74877,232.90666 483.63402,219.1661 z "
     id="path11005" />
  <path
     sodipodi:type="arc"
     style="fill:url(#linearGradient9034);fill-opacity:1;fill-rule:nonzero;stroke:url(#linearGradient9035);stroke-width:36.27921295;stroke-linecap:square;stroke-linejoin:round;stroke-miterlimit:4;stroke-dasharray:none;stroke-dashoffset:0;stroke-opacity:1"
     id="path9033"
     sodipodi:cx="585.90375"
     sodipodi:cy="561.46985"
     sodipodi:rx="90.692711"
     sodipodi:ry="90.692711"
     d="M 495.58203,569.66472 A 90.692711,90.692711 0 1 1 495.66646,570.54727"
     sodipodi:start="3.0511106"
     sodipodi:end="9.3245202"
     sodipodi:open="true"
     transform="matrix(0.857731,-0.179093,-4.310356e-2,0.823119,-40.65908,154.46)" />
  <path
     style="fill:white;fill-opacity:1;fill-rule:nonzero;stroke:none;stroke-width:1.25;stroke-linecap:square;stroke-linejoin:round;stroke-miterlimit:4;stroke-dashoffset:0;stroke-opacity:1"
     d="M 522.74155,186.80443 C 407.91613,186.16827 277.57948,254.24913 196.65069,357.95434 C 115.85347,457.85421 85.965127,586.41256 120.03946,682.76921 C 154.32901,787.35609 262.05289,848.87984 385.31661,834.28018 C 500.65403,822.94301 623.89798,746.17353 695.91346,640.43323 C 773.83662,530.24886 790.21571,393.63679 737.20713,302.19115 C 696.687,229.54908 616.20093,186.12429 522.74155,186.80443 z M 518.97732,217.36524 C 630.72763,217.29153 718.55195,290.12228 733.98626,394.67678 C 750.92849,494.05263 700.84758,617.06108 609.26361,699.80599 C 519.16871,784.22615 392.74503,823.56575 295.46725,798.1952 C 194.0481,774.23962 129.62528,681.99998 137.77565,571.90563 C 142.92117,468.93449 211.01696,355.80142 308.55472,288.02083 C 373.52373,241.78254 449.70016,216.35442 518.97732,217.36524 z "
     id="path30632" />
  <path
     style="fill:url(#linearGradient17279);fill-opacity:1;fill-rule:nonzero;stroke:none;stroke-width:1.25;stroke-linecap:square;stroke-linejoin:round;stroke-miterlimit:4;stroke-dashoffset:0;stroke-opacity:1"
     d="M 523.11747,186.42244 C 408.29205,185.78628 277.9554,253.86713 197.02661,357.57235 C 116.22941,457.4723 86.341049,586.03056 120.41538,682.38713 C 154.70494,786.97409 262.42881,848.49784 385.69253,833.8981 C 501.02995,822.56101 624.27391,745.79153 696.28937,640.05123 C 774.21253,529.86686 790.59162,393.25479 737.58303,301.80915 C 697.0629,229.16708 616.57685,185.7423 523.11747,186.42244 z M 519.35324,216.98325 C 631.10353,216.90954 718.92785,289.74028 734.36226,394.29469 C 751.30439,493.67064 701.22348,616.67908 609.63954,699.424 C 519.54463,783.84415 393.12095,823.18367 295.84318,797.8132 C 194.42403,773.85754 130.00121,681.61798 138.15157,571.52364 C 143.29709,468.55249 211.39288,355.41942 308.93064,287.63883 C 373.89965,241.40054 450.07608,215.97242 519.35324,216.98325 z "
     id="path9709" />
  <path
     style="fill:url(#radialGradient25622);fill-opacity:1;fill-rule:nonzero;stroke:url(#radialGradient30007);stroke-width:29.31320953;stroke-linecap:square;stroke-linejoin:round;stroke-miterlimit:4;stroke-opacity:1"
     d="M 259.19428,524.72182 C 417.68051,778.10566 415.0189,804.21818 325.39243,861.56665 C 175.46425,891.60667 52.862633,635.78697 85.347593,526.1878 C 185.11891,167.80082 579.21698,-133.21478 273.97814,206.81628 C 499.06578,-159.89747 202.62853,316.33646 259.19428,524.72182 z "
     id="path1064"
     sodipodi:nodetypes="ccccc" />
  <path
     style="opacity:0.9;fill:url(#radialGradient25627);fill-opacity:1;fill-rule:evenodd;stroke:url(#radialGradient25628);stroke-width:41.93848419;stroke-linecap:butt;stroke-linejoin:miter;stroke-miterlimit:4;stroke-opacity:0.98860402"
     d="M 449.37397,101.80159 C 287.3523,244.53214 404.61844,401.79924 445.98828,494.12283 C 545.76869,466.30985 715.32787,203.74518 449.37397,101.80159 z "
     id="path1067"
     sodipodi:nodetypes="ccc" />
</svg>
