<?xml version="1.0" encoding="UTF-8" standalone="no"?>
<!-- Created with Inkscape (http://www.inkscape.org/) -->
<svg
   xmlns:dc="http://purl.org/dc/elements/1.1/"
   xmlns:cc="http://web.resource.org/cc/"
   xmlns:rdf="http://www.w3.org/1999/02/22-rdf-syntax-ns#"
   xmlns:svg="http://www.w3.org/2000/svg"
   xmlns="http://www.w3.org/2000/svg"
   xmlns:xlink="http://www.w3.org/1999/xlink"
   xmlns:sodipodi="http://sodipodi.sourceforge.net/DTD/sodipodi-0.dtd"
   xmlns:inkscape="http://www.inkscape.org/namespaces/inkscape"
   id="svg1975"
   sodipodi:version="0.32"
   inkscape:version="0.45"
   width="22"
   height="22"
   version="1.0"
   sodipodi:docbase="/home/ulisse/Desktop/Brasero/22x22"
   sodipodi:docname="brasero.svg"
   inkscape:output_extension="org.inkscape.output.svg.inkscape"
   sodipodi:modified="true">
  <metadata
     id="metadata1980">
    <rdf:RDF>
      <cc:Work
         rdf:about="">
        <dc:format>image/svg+xml</dc:format>
        <dc:type
           rdf:resource="http://purl.org/dc/dcmitype/StillImage" />
        <dc:contributor>
          <cc:Agent>
            <dc:title>Philippe Rouquier
Jakub Steiner
Andreas Nilsson</dc:title>
          </cc:Agent>
        </dc:contributor>
        <dc:creator>
          <cc:Agent>
            <dc:title>Ulisse Perusin</dc:title>
          </cc:Agent>
        </dc:creator>
        <dc:title>Brasero</dc:title>
        <cc:license
           rdf:resource="http://creativecommons.org/licenses/GPL/2.0/" />
      </cc:Work>
      <cc:License
         rdf:about="http://creativecommons.org/licenses/GPL/2.0/">
        <cc:permits
           rdf:resource="http://web.resource.org/cc/Reproduction" />
        <cc:permits
           rdf:resource="http://web.resource.org/cc/Distribution" />
        <cc:requires
           rdf:resource="http://web.resource.org/cc/Notice" />
        <cc:permits
           rdf:resource="http://web.resource.org/cc/DerivativeWorks" />
        <cc:requires
           rdf:resource="http://web.resource.org/cc/ShareAlike" />
        <cc:requires
           rdf:resource="http://web.resource.org/cc/SourceCode" />
      </cc:License>
    </rdf:RDF>
  </metadata>
  <defs
     id="defs1978">
    <linearGradient
       inkscape:collect="always"
       id="linearGradient3193">
      <stop
         style="stop-color:#ffe3a4;stop-opacity:1"
         offset="0"
         id="stop3195" />
      <stop
         style="stop-color:#ffba49;stop-opacity:1"
         offset="1"
         id="stop3197" />
    </linearGradient>
    <linearGradient
       id="linearGradient4212"
       inkscape:collect="always">
      <stop
         id="stop4214"
         offset="0"
         style="stop-color:#ff4d19;stop-opacity:1" />
      <stop
         id="stop4216"
         offset="1"
         style="stop-color:#fec446;stop-opacity:1" />
    </linearGradient>
    <linearGradient
       id="linearGradient3403"
       inkscape:collect="always">
      <stop
         id="stop3405"
         offset="0"
         style="stop-color:#f5a200;stop-opacity:0.88973385" />
      <stop
         id="stop3407"
         offset="1"
         style="stop-color:#f55f00;stop-opacity:1" />
    </linearGradient>
    <linearGradient
       inkscape:collect="always"
       id="linearGradient3349">
      <stop
         style="stop-color:#f5a200;stop-opacity:1"
         offset="0"
         id="stop3351" />
      <stop
         style="stop-color:#f55f00;stop-opacity:1"
         offset="1"
         id="stop3353" />
    </linearGradient>
    <linearGradient
       id="linearGradient3343"
       inkscape:collect="always">
      <stop
         id="stop3345"
         offset="0"
         style="stop-color:#ff4d19;stop-opacity:1" />
      <stop
         id="stop3347"
         offset="1"
         style="stop-color:#fec446;stop-opacity:1" />
    </linearGradient>
    <linearGradient
       inkscape:collect="always"
       id="linearGradient3297">
      <stop
         style="stop-color:#ff4d19;stop-opacity:1"
         offset="0"
         id="stop3299" />
      <stop
         style="stop-color:#fec446;stop-opacity:1"
         offset="1"
         id="stop3301" />
    </linearGradient>
    <linearGradient
       id="linearGradient23419"
       inkscape:collect="always">
      <stop
         id="stop23421"
         offset="0"
         style="stop-color:#000000;stop-opacity:1;" />
      <stop
         id="stop23423"
         offset="1"
         style="stop-color:#000000;stop-opacity:0;" />
    </linearGradient>
    <linearGradient
       y2="34.307499"
       x2="32.511002"
       y1="11.1885"
       x1="14.9966"
       gradientUnits="userSpaceOnUse"
       id="aigrd1">
      <stop
         id="stop3034"
         style="stop-color:#EBEBEB"
         offset="0" />
      <stop
         id="stop3036"
         style="stop-color:#FFFFFF"
         offset="0.5" />
      <stop
         id="stop3038"
         style="stop-color:#EBEBEB"
         offset="1" />
    </linearGradient>
    <linearGradient
       y2="14.2033"
       x2="35.391201"
       y1="32.4165"
       x1="12.2744"
       gradientUnits="userSpaceOnUse"
       id="aigrd2">
      <stop
         id="stop3043"
         style="stop-color:#FBFBFB"
         offset="0" />
      <stop
         id="stop3045"
         style="stop-color:#B6B6B6"
         offset="0.5" />
      <stop
         id="stop3047"
         style="stop-color:#E4E4E4"
         offset="1" />
    </linearGradient>
    <linearGradient
       id="linearGradient6036"
       inkscape:collect="always">
      <stop
         id="stop6038"
         offset="0"
         style="stop-color:#ffffff;stop-opacity:1;" />
      <stop
         id="stop6040"
         offset="1"
         style="stop-color:#ffffff;stop-opacity:0;" />
    </linearGradient>
    <linearGradient
       id="linearGradient6028"
       inkscape:collect="always">
      <stop
         id="stop6030"
         offset="0"
         style="stop-color:#ffffff;stop-opacity:1;" />
      <stop
         id="stop6032"
         offset="1"
         style="stop-color:#ffffff;stop-opacity:0;" />
    </linearGradient>
    <linearGradient
       id="linearGradient4409"
       inkscape:collect="always">
      <stop
         id="stop4411"
         offset="0"
         style="stop-color:#ffffff;stop-opacity:1;" />
      <stop
         id="stop4413"
         offset="1"
         style="stop-color:#ffffff;stop-opacity:0;" />
    </linearGradient>
    <radialGradient
       inkscape:collect="always"
       xlink:href="#linearGradient23419"
       id="radialGradient3250"
       gradientUnits="userSpaceOnUse"
       gradientTransform="matrix(1,0,0,0.25,0,31.22703)"
       cx="23.334524"
       cy="41.63604"
       fx="23.334524"
       fy="41.63604"
       r="22.627417" />
    <linearGradient
       inkscape:collect="always"
       xlink:href="#aigrd1"
       id="linearGradient3276"
       gradientUnits="userSpaceOnUse"
       gradientTransform="matrix(1.190476,0,0,1.190476,-4.308944,-3.833323)"
       x1="14.9966"
       y1="11.1885"
       x2="32.511002"
       y2="34.307499" />
    <linearGradient
       inkscape:collect="always"
       xlink:href="#aigrd2"
       id="linearGradient3278"
       gradientUnits="userSpaceOnUse"
       gradientTransform="matrix(1.190476,0,0,1.190476,-4.308944,-3.833324)"
       x1="12.2744"
       y1="32.4165"
       x2="35.391201"
       y2="14.2033" />
    <linearGradient
       inkscape:collect="always"
       xlink:href="#linearGradient4409"
       id="linearGradient3280"
       gradientUnits="userSpaceOnUse"
       gradientTransform="matrix(0.9523465,0,3.5559583e-3,0.9659467,1.1601016,0.3754775)"
       x1="25.985928"
       y1="24.919628"
       x2="15.889072"
       y2="11.669628" />
    <linearGradient
       inkscape:collect="always"
       xlink:href="#linearGradient6036"
       id="linearGradient3282"
       gradientUnits="userSpaceOnUse"
       gradientTransform="matrix(0.9204235,0,2.0209781e-3,0.9281528,1.813021,0.4502335)"
       x1="10.50172"
       y1="3.6100161"
       x2="48.798885"
       y2="54.698483" />
    <linearGradient
       inkscape:collect="always"
       xlink:href="#linearGradient6028"
       id="linearGradient3284"
       gradientUnits="userSpaceOnUse"
       x1="28.702885"
       y1="31.494707"
       x2="17.742729"
       y2="18.366575" />
    <linearGradient
       inkscape:collect="always"
       xlink:href="#linearGradient4212"
       id="linearGradient3303"
       x1="8.9369812"
       y1="26.022575"
       x2="11.765572"
       y2="40.504414"
       gradientUnits="userSpaceOnUse"
       gradientTransform="matrix(0.4666375,0,0,0.4381832,0.4126521,0.7839623)" />
    <linearGradient
       inkscape:collect="always"
       xlink:href="#linearGradient3193"
       id="linearGradient3327"
       x1="2.9604101"
       y1="5.4273195"
       x2="5.2043109"
       y2="21.596874"
       gradientUnits="userSpaceOnUse" />
    <linearGradient
       inkscape:collect="always"
       xlink:href="#linearGradient3193"
       id="linearGradient3339"
       x1="14.163975"
       y1="3.3473628"
       x2="13.652569"
       y2="11.951563"
       gradientUnits="userSpaceOnUse" />
    <linearGradient
       inkscape:collect="always"
       xlink:href="#linearGradient3343"
       id="linearGradient3341"
       x1="23.918831"
       y1="14.120479"
       x2="23.35877"
       y2="23.209305"
       gradientUnits="userSpaceOnUse"
       gradientTransform="matrix(0.4167292,0,0,0.479936,0.8289764,-0.1493039)" />
    <linearGradient
       inkscape:collect="always"
       xlink:href="#linearGradient3349"
       id="linearGradient3355"
       x1="11.391339"
       y1="16.274387"
       x2="16.147627"
       y2="35.156826"
       gradientUnits="userSpaceOnUse"
       gradientTransform="matrix(0.4666375,0,0,0.4381832,0.4126521,0.7839623)" />
    <linearGradient
       inkscape:collect="always"
       xlink:href="#linearGradient3403"
       id="linearGradient3363"
       x1="24.456329"
       y1="10.06987"
       x2="27.001125"
       y2="29.433199"
       gradientUnits="userSpaceOnUse"
       gradientTransform="matrix(0.4167292,0,0,0.479936,0.8289764,-0.1493039)" />
    <linearGradient
       inkscape:collect="always"
       xlink:href="#linearGradient3349"
       id="linearGradient3391"
       x1="34.352047"
       y1="17.267895"
       x2="37.590771"
       y2="33.67453"
       gradientUnits="userSpaceOnUse"
       gradientTransform="matrix(0.4357011,0,0,0.455536,0.6759232,0.2424456)" />
    <linearGradient
       inkscape:collect="always"
       xlink:href="#linearGradient3297"
       id="linearGradient3401"
       x1="38.460506"
       y1="23.274868"
       x2="38.934639"
       y2="38.003193"
       gradientUnits="userSpaceOnUse"
       gradientTransform="matrix(0.4357011,0,0,0.455536,0.6759232,0.2424456)" />
    <linearGradient
       inkscape:collect="always"
       xlink:href="#linearGradient3193"
       id="linearGradient4233"
       x1="17.926132"
       y1="3.2304175"
       x2="17.724646"
       y2="16.058348"
       gradientUnits="userSpaceOnUse" />
  </defs>
  <sodipodi:namedview
     inkscape:window-height="931"
     inkscape:window-width="1280"
     inkscape:pageshadow="2"
     inkscape:pageopacity="0.0"
     guidetolerance="10.0"
     gridtolerance="10.0"
     objecttolerance="10.0"
     borderopacity="0.4"
     bordercolor="#666666"
     pagecolor="#ffffff"
     id="base"
     inkscape:zoom="16"
     inkscape:cx="18.30148"
     inkscape:cy="6.8302722"
     inkscape:window-x="0"
     inkscape:window-y="23"
     inkscape:current-layer="svg1975"
     width="22px"
     height="22px"
     inkscape:showpageshadow="false"
     borderlayer="true"
     showgrid="false"
     gridspacingx="0.5px"
     gridspacingy="0.5px"
     gridempspacing="2"
     showguides="true"
     inkscape:guide-bbox="true" />
  <path
     transform="matrix(0.3535534,0,0,0.4419416,0.7499998,1.0993027)"
     inkscape:r_cy="true"
     inkscape:r_cx="true"
     d="M 45.961941 41.63604 A 22.627417 5.6568542 0 1 1  0.70710754,41.63604 A 22.627417 5.6568542 0 1 1  45.961941 41.63604 z"
     sodipodi:ry="5.6568542"
     sodipodi:rx="22.627417"
     sodipodi:cy="41.63604"
     sodipodi:cx="23.334524"
     id="path23417"
     style="opacity:0.55;color:#000000;fill:url(#radialGradient3250);fill-opacity:1;fill-rule:evenodd;stroke:none;stroke-width:2;stroke-linecap:butt;stroke-linejoin:miter;marker:none;marker-start:none;marker-mid:none;marker-end:none;stroke-miterlimit:4;stroke-dasharray:none;stroke-dashoffset:0;stroke-opacity:1;visibility:visible;display:inline;overflow:visible"
     sodipodi:type="arc" />
  <path
     style="opacity:0.9;fill:url(#linearGradient3401);fill-opacity:1;fill-rule:nonzero;stroke:url(#linearGradient3391);stroke-width:0.99999982;stroke-linecap:round;stroke-linejoin:round;stroke-miterlimit:4;stroke-dasharray:none;stroke-opacity:1"
     d="M 11.5,19.857529 C 12.36307,21.07826 18.799779,21.267476 20.273787,13.843688 C 21.640115,6.9622257 16.451433,1.1519255 14.491876,0.49999999 C 16.234839,5.8602743 16.291678,15.172037 11.5,19.857529 z "
     id="path1066"
     sodipodi:nodetypes="cscc" />
  <path
     sodipodi:type="inkscape:offset"
     inkscape:radius="-1.0498953"
     inkscape:original="M 14.5 0.5 C 16.242963 5.8602743 16.291678 15.158258 11.5 19.84375 C 12.36307 21.064481 18.807242 21.267538 20.28125 13.84375 C 21.647578 6.9622877 16.459557 1.1519255 14.5 0.5 z "
     xlink:href="#path1066"
     style="opacity:1;fill:none;fill-opacity:1;fill-rule:nonzero;stroke:url(#linearGradient4233);stroke-width:0.98281026;stroke-linecap:round;stroke-linejoin:miter;stroke-miterlimit:4;stroke-dasharray:none;stroke-opacity:1"
     id="path3365"
     inkscape:href="#path1066"
     d="M 16.125,3.21875 C 16.534107,5.5079973 16.76473,7.9620861 16.5,10.53125 C 16.169037,13.743187 15.158122,16.9254 13.21875,19.40625 C 13.788433,19.450743 14.521283,19.383101 15.28125,19.09375 C 16.868787,18.489309 18.57027,17.048433 19.25,13.625 C 19.872737,10.488609 18.995641,7.5734073 17.71875,5.34375 C 17.219048,4.4711891 16.667162,3.8322817 16.125,3.21875 z "
     transform="matrix(1.0204934,0,0,1.0144964,-0.353798,-0.2002408)" />
  <g
     inkscape:label="Layer 1"
     id="layer1"
     transform="matrix(0.3714529,0,-9.7121383e-2,0.4081582,3.7810016,2.345405)">
    <path
       style="fill:url(#linearGradient3276);fill-rule:nonzero;stroke:none;stroke-miterlimit:4"
       d="M 24.262486,2.8333435 C 12.714866,2.8333435 3.4291519,12.119058 3.4291519,23.666677 C 3.4291519,35.214297 12.714866,44.500012 24.262486,44.500012 C 35.810106,44.500012 45.095821,35.214297 45.095821,23.666677 C 45.095821,12.119058 35.810106,2.8333435 24.262486,2.8333435 L 24.262486,2.8333435 z M 24.262486,28.666678 C 21.524391,28.666678 19.262486,26.404773 19.262486,23.666677 C 19.262486,20.928582 21.524391,18.666677 24.262486,18.666677 C 27.000581,18.666677 29.262486,20.928582 29.262486,23.666677 C 29.262486,26.404773 27.000581,28.666678 24.262486,28.666678 z "
       id="path3040"
       inkscape:r_cx="true"
       inkscape:r_cy="true" />
    <path
       style="fill:url(#linearGradient3278);fill-rule:nonzero;stroke:#808080;stroke-width:2.56823063;stroke-miterlimit:4;stroke-opacity:1"
       d="M 24.262486,2.8333431 C 12.714866,2.8333431 3.429152,12.119058 3.429152,23.666677 C 3.429152,35.214297 12.714866,44.500012 24.262486,44.500012 C 35.810106,44.500012 45.095821,35.214297 45.095821,23.666677 C 45.095821,12.119058 35.810106,2.8333431 24.262486,2.8333431 L 24.262486,2.8333431 z M 24.797117,29.765603 C 21.318955,30.3313 18.983668,26.436153 19.156001,23.537818 C 19.316553,20.837631 21.481356,17.404316 24.219451,17.404316 C 26.957546,17.404316 29.543981,21.15782 29.543981,23.895915 C 29.543981,26.634011 27.381586,29.345258 24.797117,29.765603 z "
       id="path3049"
       inkscape:r_cx="true"
       inkscape:r_cy="true"
       sodipodi:nodetypes="cssscccssss" />
    <path
       sodipodi:nodetypes="csccssccsc"
       id="path3531"
       d="M 22.992428,4.0579903 C 12.745014,4.4500783 4.6452886,12.961461 4.6839244,23.456551 C 4.7014392,28.214326 6.3812259,32.538758 9.1741898,35.904203 L 18.937258,27.553352 C 18.247292,26.73873 17.214702,23.606412 17.210495,22.463679 C 17.198439,19.188744 20.643178,16.333366 23.750766,16.333366 C 25.163977,16.333366 27.869723,17.728265 28.71863,18.764602 L 38.47331,11.037982 C 34.957542,6.7644854 29.643863,4.0579903 23.709274,4.0579903 C 23.460939,4.0579903 23.238366,4.0485803 22.992428,4.0579903 z "
       style="fill:url(#linearGradient3280);fill-opacity:1;fill-rule:nonzero;stroke:none;stroke-miterlimit:4;stroke-opacity:1" />
    <path
       sodipodi:nodetypes="cccccc"
       id="path5264"
       d="M 24.233087,5.2788236 C 14.132779,5.2788236 6.0287162,13.468927 6.0508935,23.654053 C 6.0730709,33.83918 14.212801,42.02928 24.313108,42.02928 C 34.413415,42.02928 42.51748,33.83918 42.495302,23.654053 C 42.473125,13.468927 34.333394,5.2788236 24.233087,5.2788236 L 24.233087,5.2788236 z "
       style="opacity:0.54644811;fill:none;fill-rule:nonzero;stroke:url(#linearGradient3282);stroke-width:2.56823039;stroke-miterlimit:4;stroke-opacity:1"
       inkscape:r_cx="true"
       inkscape:r_cy="true" />
    <path
       transform="matrix(1.2957609,0,3.2479976e-2,1.4199848,-8.0324425,-11.747079)"
       d="M 30.405591 24.930641 A 6.0987959 6.0987959 0 1 1  18.207999,24.930641 A 6.0987959 6.0987959 0 1 1  30.405591 24.930641 z"
       sodipodi:ry="6.0987959"
       sodipodi:rx="6.0987959"
       sodipodi:cy="24.930641"
       sodipodi:cx="24.306795"
       id="path6026"
       style="opacity:0.67213111;color:#000000;fill:none;fill-opacity:0.31638417;fill-rule:nonzero;stroke:url(#linearGradient3284);stroke-width:1.76183081;stroke-linecap:butt;stroke-linejoin:miter;marker:none;marker-start:none;marker-mid:none;marker-end:none;stroke-miterlimit:4;stroke-dashoffset:0;stroke-opacity:1;visibility:visible;display:inline;overflow:visible"
       sodipodi:type="arc"
       inkscape:r_cx="true"
       inkscape:r_cy="true" />
  </g>
  <path
     style="opacity:0.9;fill:url(#linearGradient3341);fill-opacity:1;fill-rule:evenodd;stroke:url(#linearGradient3363);stroke-width:0.99999988;stroke-linecap:round;stroke-linejoin:round;stroke-miterlimit:4;stroke-dasharray:none;stroke-opacity:1"
     d="M 10.409142,1.4999998 C 10.383821,3.6241902 9.859578,4.9879394 9.2982864,6.4552384 C 8.2818901,9.112247 7.7333202,11.862526 10.011,13.488951 C 12.265466,12.85891 16.238916,6.9400985 10.409142,1.4999998 z "
     id="path1067"
     sodipodi:nodetypes="cscc" />
  <path
     style="opacity:0.9;fill:url(#linearGradient3303);fill-opacity:1;fill-rule:nonzero;stroke:url(#linearGradient3355);stroke-width:0.99999988;stroke-linecap:square;stroke-linejoin:round;stroke-miterlimit:4;stroke-dasharray:none;stroke-opacity:1"
     d="M 6.2976478,13.984576 C 7.1865701,15.929858 8.6466557,16.619476 9.3756619,18.659906 C 9.6824452,19.455071 9.4058991,20.341688 8.7183461,20.946247 C 7.9999249,21.577949 7.0679034,21.581348 6.1257351,21.387164 C 3.9980624,20.948641 2.7479053,19.454445 2.1172347,17.701007 C -0.18540801,11.29903 4.3823983,6.0124407 8.7623243,1.4999999 C 7.4044659,5.5280038 4.8238357,9.5264254 6.2976478,13.984576 z "
     id="path1064"
     sodipodi:nodetypes="ccssscc" />
  <path
     sodipodi:type="inkscape:offset"
     inkscape:radius="-0.97398376"
     inkscape:original="M 10.40625 1.5 C 10.380929 3.6241904 9.8737916 5.001451 9.3125 6.46875 C 8.2961037 9.1257587 7.7223202 11.873575 10 13.5 C 12.254466 12.869959 16.236024 6.9400987 10.40625 1.5 z "
     xlink:href="#path1067"
     style="opacity:1;fill:none;fill-opacity:1;fill-rule:evenodd;stroke:url(#linearGradient3339);stroke-width:1.00411963;stroke-linecap:butt;stroke-linejoin:miter;stroke-miterlimit:4;stroke-dasharray:none;stroke-opacity:1"
     id="path3329"
     inkscape:href="#path1067"
     d="M 11.09375,3.78125 C 10.870987,4.900207 10.566143,5.9043629 10.21875,6.8125 C 9.7287312,8.0934808 9.3945876,9.3720921 9.40625,10.375 C 9.4153224,11.155179 9.6631371,11.720759 10.15625,12.25 C 10.446523,12.079097 10.737661,11.933527 11.09375,11.5 C 11.601844,10.881411 12.044622,10.029429 12.28125,9.0625 C 12.654458,7.5374646 12.486508,5.7189066 11.09375,3.78125 z "
     transform="matrix(0.9846452,0,0,1.007278,0.2384732,-1.1280928e-2)" />
  <path
     transform="matrix(1.0068307,0,0,1.0136071,-4.3511648e-2,-0.2468227)"
     style="fill:none;fill-opacity:1;fill-rule:nonzero;stroke:url(#linearGradient3327);stroke-width:0.98989004;stroke-linecap:square;stroke-linejoin:miter;stroke-miterlimit:7;stroke-opacity:1"
     d="M 5.9047659,6.3787756 C 5.1706881,7.2086996 4.3255978,8.4494657 3.84375,9.375 C 2.536787,11.885418 2.0465902,14.432359 3.09375,17.34375 C 3.6413591,18.866254 4.5940852,20.014387 6.34375,20.375 C 7.1534882,20.54189 7.6468823,20.494222 8.03125,20.15625 C 8.4468502,19.790817 8.54553,19.392256 8.40625,19.03125 C 8.4060929,19.020834 8.4060929,19.010416 8.40625,19 C 8.1025883,18.150075 7.6766509,17.620732 7.125,16.96875 C 6.5733491,16.316768 5.888923,15.562149 5.375,14.4375 C 5.3619998,14.396522 5.351563,14.354775 5.34375,14.3125 C 4.4341778,11.561125 4.9805186,8.703194 5.9047659,6.3787756 z "
     id="path3293"
     sodipodi:nodetypes="csssssssscc" />
</svg>
