<?xml version="1.0" encoding="UTF-8" standalone="no"?>
<!-- Created with Inkscape (http://www.inkscape.org/) -->
<svg
   xmlns:dc="http://purl.org/dc/elements/1.1/"
   xmlns:cc="http://web.resource.org/cc/"
   xmlns:rdf="http://www.w3.org/1999/02/22-rdf-syntax-ns#"
   xmlns:svg="http://www.w3.org/2000/svg"
   xmlns="http://www.w3.org/2000/svg"
   xmlns:xlink="http://www.w3.org/1999/xlink"
   xmlns:sodipodi="http://sodipodi.sourceforge.net/DTD/sodipodi-0.dtd"
   xmlns:inkscape="http://www.inkscape.org/namespaces/inkscape"
   id="svg1975"
   sodipodi:version="0.32"
   inkscape:version="0.45"
   width="32"
   height="32"
   version="1.0"
   sodipodi:docbase="/home/ulisse/Desktop/Brasero/32x32"
   sodipodi:docname="brasero.svg"
   inkscape:output_extension="org.inkscape.output.svg.inkscape"
   sodipodi:modified="true">
  <metadata
     id="metadata1980">
    <rdf:RDF>
      <cc:Work
         rdf:about="">
        <dc:format>image/svg+xml</dc:format>
        <dc:type
           rdf:resource="http://purl.org/dc/dcmitype/StillImage" />
        <dc:contributor>
          <cc:Agent>
            <dc:title>Philippe Rouquier
Jakub Steiner
Andreas Nilsson</dc:title>
          </cc:Agent>
        </dc:contributor>
        <dc:creator>
          <cc:Agent>
            <dc:title>Ulisse Perusin</dc:title>
          </cc:Agent>
        </dc:creator>
        <dc:title>Brasero</dc:title>
        <cc:license
           rdf:resource="http://creativecommons.org/licenses/GPL/2.0/" />
      </cc:Work>
      <cc:License
         rdf:about="http://creativecommons.org/licenses/GPL/2.0/">
        <cc:permits
           rdf:resource="http://web.resource.org/cc/Reproduction" />
        <cc:permits
           rdf:resource="http://web.resource.org/cc/Distribution" />
        <cc:requires
           rdf:resource="http://web.resource.org/cc/Notice" />
        <cc:permits
           rdf:resource="http://web.resource.org/cc/DerivativeWorks" />
        <cc:requires
           rdf:resource="http://web.resource.org/cc/ShareAlike" />
        <cc:requires
           rdf:resource="http://web.resource.org/cc/SourceCode" />
      </cc:License>
    </rdf:RDF>
  </metadata>
  <defs
     id="defs1978">
    <linearGradient
       inkscape:collect="always"
       id="linearGradient3193">
      <stop
         style="stop-color:#ff4d19;stop-opacity:1;"
         offset="0"
         id="stop3195" />
      <stop
         style="stop-color:#ff4d19;stop-opacity:0.17490494"
         offset="1"
         id="stop3197" />
    </linearGradient>
    <linearGradient
       id="linearGradient3403"
       inkscape:collect="always">
      <stop
         id="stop3405"
         offset="0"
         style="stop-color:#f5a200;stop-opacity:0.88973385" />
      <stop
         id="stop3407"
         offset="1"
         style="stop-color:#f55f00;stop-opacity:1" />
    </linearGradient>
    <linearGradient
       id="linearGradient3349">
      <stop
         style="stop-color:#f5a200;stop-opacity:1"
         offset="0"
         id="stop3351" />
      <stop
         style="stop-color:#d74c00;stop-opacity:1;"
         offset="1"
         id="stop3353" />
    </linearGradient>
    <linearGradient
       id="linearGradient3343"
       inkscape:collect="always">
      <stop
         id="stop3345"
         offset="0"
         style="stop-color:#fce94f;stop-opacity:0.8326996" />
      <stop
         id="stop3347"
         offset="1"
         style="stop-color:#fec446;stop-opacity:1" />
    </linearGradient>
    <linearGradient
       inkscape:collect="always"
       id="linearGradient3321">
      <stop
         style="stop-color:#ffffff;stop-opacity:1;"
         offset="0"
         id="stop3323" />
      <stop
         style="stop-color:#ffffff;stop-opacity:0.16862746"
         offset="1"
         id="stop3325" />
    </linearGradient>
    <linearGradient
       id="linearGradient3297">
      <stop
         style="stop-color:#fcd04f;stop-opacity:0.90588236;"
         offset="0"
         id="stop3299" />
      <stop
         style="stop-color:#feaf46;stop-opacity:1;"
         offset="1"
         id="stop3301" />
    </linearGradient>
    <linearGradient
       id="linearGradient23419"
       inkscape:collect="always">
      <stop
         id="stop23421"
         offset="0"
         style="stop-color:#000000;stop-opacity:1;" />
      <stop
         id="stop23423"
         offset="1"
         style="stop-color:#000000;stop-opacity:0;" />
    </linearGradient>
    <linearGradient
       y2="34.307499"
       x2="32.511002"
       y1="11.1885"
       x1="14.9966"
       gradientUnits="userSpaceOnUse"
       id="aigrd1">
      <stop
         id="stop3034"
         style="stop-color:#EBEBEB"
         offset="0" />
      <stop
         id="stop3036"
         style="stop-color:#FFFFFF"
         offset="0.5" />
      <stop
         id="stop3038"
         style="stop-color:#EBEBEB"
         offset="1" />
    </linearGradient>
    <linearGradient
       y2="14.2033"
       x2="35.391201"
       y1="32.4165"
       x1="12.2744"
       gradientUnits="userSpaceOnUse"
       id="aigrd2">
      <stop
         id="stop3043"
         style="stop-color:#FBFBFB"
         offset="0" />
      <stop
         id="stop3045"
         style="stop-color:#B6B6B6"
         offset="0.5" />
      <stop
         id="stop3047"
         style="stop-color:#E4E4E4"
         offset="1" />
    </linearGradient>
    <linearGradient
       id="linearGradient6036"
       inkscape:collect="always">
      <stop
         id="stop6038"
         offset="0"
         style="stop-color:#ffffff;stop-opacity:1;" />
      <stop
         id="stop6040"
         offset="1"
         style="stop-color:#ffffff;stop-opacity:0;" />
    </linearGradient>
    <linearGradient
       id="linearGradient6028"
       inkscape:collect="always">
      <stop
         id="stop6030"
         offset="0"
         style="stop-color:#ffffff;stop-opacity:1;" />
      <stop
         id="stop6032"
         offset="1"
         style="stop-color:#ffffff;stop-opacity:0;" />
    </linearGradient>
    <linearGradient
       id="linearGradient4409"
       inkscape:collect="always">
      <stop
         id="stop4411"
         offset="0"
         style="stop-color:#ffffff;stop-opacity:1;" />
      <stop
         id="stop4413"
         offset="1"
         style="stop-color:#ffffff;stop-opacity:0;" />
    </linearGradient>
    <radialGradient
       inkscape:collect="always"
       xlink:href="#linearGradient23419"
       id="radialGradient3250"
       gradientUnits="userSpaceOnUse"
       gradientTransform="matrix(1,0,0,0.25,0,31.22703)"
       cx="23.334524"
       cy="41.63604"
       fx="23.334524"
       fy="41.63604"
       r="22.627417" />
    <linearGradient
       inkscape:collect="always"
       xlink:href="#aigrd1"
       id="linearGradient3276"
       gradientUnits="userSpaceOnUse"
       gradientTransform="matrix(1.190476,0,0,1.190476,-4.308944,-3.833323)"
       x1="14.9966"
       y1="11.1885"
       x2="32.511002"
       y2="34.307499" />
    <linearGradient
       inkscape:collect="always"
       xlink:href="#aigrd2"
       id="linearGradient3278"
       gradientUnits="userSpaceOnUse"
       gradientTransform="matrix(1.190476,0,0,1.190476,-4.308944,-3.833324)"
       x1="12.2744"
       y1="32.4165"
       x2="35.391201"
       y2="14.2033" />
    <linearGradient
       inkscape:collect="always"
       xlink:href="#linearGradient4409"
       id="linearGradient3280"
       gradientUnits="userSpaceOnUse"
       gradientTransform="matrix(0.9968789,0,3.8292024e-3,1.0115242,0.7470512,-0.2045009)"
       x1="25.985928"
       y1="24.919628"
       x2="15.889072"
       y2="11.669628" />
    <linearGradient
       inkscape:collect="always"
       xlink:href="#linearGradient6036"
       id="linearGradient3282"
       gradientUnits="userSpaceOnUse"
       gradientTransform="matrix(0.9634633,0,1.3711545e-3,0.9687072,0.8051561,-0.5583486)"
       x1="10.50172"
       y1="3.6100161"
       x2="48.798885"
       y2="54.698483" />
    <linearGradient
       inkscape:collect="always"
       xlink:href="#linearGradient6028"
       id="linearGradient3284"
       gradientUnits="userSpaceOnUse"
       x1="28.702885"
       y1="31.494707"
       x2="17.742729"
       y2="18.366575" />
    <linearGradient
       inkscape:collect="always"
       xlink:href="#linearGradient3297"
       id="linearGradient3303"
       x1="8.345706"
       y1="14.910378"
       x2="11.765572"
       y2="40.504414"
       gradientUnits="userSpaceOnUse"
       gradientTransform="matrix(0.64068,0,0,0.6563066,1.0233291,0.4717202)" />
    <linearGradient
       inkscape:collect="always"
       xlink:href="#linearGradient3321"
       id="linearGradient3327"
       x1="7.0854101"
       y1="20.983158"
       x2="14.014328"
       y2="42.130581"
       gradientUnits="userSpaceOnUse" />
    <linearGradient
       inkscape:collect="always"
       xlink:href="#linearGradient3321"
       id="linearGradient3339"
       x1="22.803511"
       y1="8.6696863"
       x2="24.451988"
       y2="21.817261"
       gradientUnits="userSpaceOnUse" />
    <linearGradient
       inkscape:collect="always"
       xlink:href="#linearGradient3343"
       id="linearGradient3341"
       x1="23.41287"
       y1="17.026258"
       x2="23.35877"
       y2="23.209305"
       gradientUnits="userSpaceOnUse"
       gradientTransform="matrix(0.6618595,0,0,0.6816769,0.3166932,0.1132183)" />
    <linearGradient
       inkscape:collect="always"
       xlink:href="#linearGradient3349"
       id="linearGradient3355"
       x1="12.701962"
       y1="11.291398"
       x2="16.147627"
       y2="35.156826"
       gradientUnits="userSpaceOnUse"
       gradientTransform="matrix(0.64068,0,0,0.6563066,1.0233291,0.4717202)" />
    <linearGradient
       inkscape:collect="always"
       xlink:href="#linearGradient3403"
       id="linearGradient3363"
       x1="25.324375"
       y1="4.2998614"
       x2="26.800808"
       y2="26.191622"
       gradientUnits="userSpaceOnUse"
       gradientTransform="matrix(0.6618595,0,0,0.6816769,0.3166932,0.1132183)" />
    <linearGradient
       inkscape:collect="always"
       xlink:href="#linearGradient3321"
       id="linearGradient3383"
       x1="35.672604"
       y1="9.6719131"
       x2="38.559429"
       y2="36.801826"
       gradientUnits="userSpaceOnUse" />
    <linearGradient
       inkscape:collect="always"
       xlink:href="#linearGradient3349"
       id="linearGradient3391"
       x1="34.352047"
       y1="17.267895"
       x2="37.590771"
       y2="33.67453"
       gradientUnits="userSpaceOnUse"
       gradientTransform="matrix(0.6534516,0,0,0.6595204,0.7663646,0.1713096)" />
    <linearGradient
       inkscape:collect="always"
       xlink:href="#linearGradient3297"
       id="linearGradient3401"
       x1="38.88414"
       y1="12.518509"
       x2="41.335243"
       y2="31.996395"
       gradientUnits="userSpaceOnUse"
       gradientTransform="matrix(0.6534516,0,0,0.6595204,0.7663646,0.1713096)" />
    <linearGradient
       inkscape:collect="always"
       xlink:href="#linearGradient3193"
       id="linearGradient3199"
       x1="7.3819184"
       y1="29.752035"
       x2="15.290119"
       y2="45.573547"
       gradientUnits="userSpaceOnUse"
       gradientTransform="matrix(0.6064896,0,0,0.6358678,1.380649,1.5922528)" />
    <linearGradient
       inkscape:collect="always"
       xlink:href="#linearGradient3193"
       id="linearGradient3203"
       gradientUnits="userSpaceOnUse"
       x1="24.53307"
       y1="6.2625399"
       x2="24.533075"
       y2="31.617884"
       gradientTransform="matrix(0.2435944,0,0,0.3447299,10.529078,6.1959362)" />
    <linearGradient
       inkscape:collect="always"
       xlink:href="#linearGradient3193"
       id="linearGradient3209"
       gradientUnits="userSpaceOnUse"
       gradientTransform="matrix(0.3222064,0,0,0.323606,13.696349,17.570743)"
       x1="24.533068"
       y1="9.1633615"
       x2="20.236393"
       y2="32.652786" />
  </defs>
  <sodipodi:namedview
     inkscape:window-height="931"
     inkscape:window-width="1280"
     inkscape:pageshadow="2"
     inkscape:pageopacity="0.0"
     guidetolerance="10.0"
     gridtolerance="10.0"
     objecttolerance="10.0"
     borderopacity="0.4"
     bordercolor="#666666"
     pagecolor="#ffffff"
     id="base"
     inkscape:zoom="1"
     inkscape:cx="22.308925"
     inkscape:cy="13.769"
     inkscape:window-x="0"
     inkscape:window-y="23"
     inkscape:current-layer="svg1975"
     width="32px"
     height="32px"
     inkscape:showpageshadow="false"
     borderlayer="true"
     showgrid="false"
     gridspacingx="0.5px"
     gridspacingy="0.5px"
     gridempspacing="2" />
  <path
     transform="matrix(0.508233,0,0,0.7071068,1.6406246,-1.4411266)"
     inkscape:r_cy="true"
     inkscape:r_cx="true"
     d="M 45.961941 41.63604 A 22.627417 5.6568542 0 1 1  0.70710754,41.63604 A 22.627417 5.6568542 0 1 1  45.961941 41.63604 z"
     sodipodi:ry="5.6568542"
     sodipodi:rx="22.627417"
     sodipodi:cy="41.63604"
     sodipodi:cx="23.334524"
     id="path23417"
     style="opacity:0.55;color:#000000;fill:url(#radialGradient3250);fill-opacity:1;fill-rule:evenodd;stroke:none;stroke-width:2;stroke-linecap:butt;stroke-linejoin:miter;marker:none;marker-start:none;marker-mid:none;marker-end:none;stroke-miterlimit:4;stroke-dasharray:none;stroke-dashoffset:0;stroke-opacity:1;visibility:visible;display:inline;overflow:visible"
     sodipodi:type="arc" />
  <path
     style="opacity:0.9;fill:url(#linearGradient3401);fill-opacity:1;fill-rule:nonzero;stroke:url(#linearGradient3391);stroke-width:0.99999988;stroke-linecap:round;stroke-linejoin:round;stroke-miterlimit:4;stroke-dasharray:none;stroke-opacity:1"
     d="M 17,28.569835 C 18.294407,30.337198 27.947993,30.611142 30.158668,19.863055 C 32.207847,9.9001406 24.426013,1.4880452 21.487128,0.54419408 C 24.101173,8.3047462 24.186419,21.786225 17,28.569835 z "
     id="path1066"
     sodipodi:nodetypes="cscc" />
  <path
     style="opacity:0.95785441;fill:url(#linearGradient3209);fill-opacity:1;fill-rule:evenodd;stroke:none;stroke-width:0.99999994;stroke-linecap:round;stroke-linejoin:round;stroke-miterlimit:4;stroke-dasharray:none;stroke-opacity:1"
     d="M 27.964895,14.98906 C 27.631501,17.78934 17.478073,24.431769 20.932384,26.940567 C 24.722441,27.001817 28.454649,22.546809 27.964895,14.98906 z "
     id="path3207"
     sodipodi:nodetypes="ccc" />
  <path
     sodipodi:type="inkscape:offset"
     inkscape:radius="-1.0498953"
     inkscape:original="M 21.5 0.53125 C 24.114046 8.2918021 24.186419 21.77889 17 28.5625 C 18.294407 30.329862 27.945575 30.623087 30.15625 19.875 C 32.205428 9.9120863 24.438885 1.4751011 21.5 0.53125 z "
     xlink:href="#path1066"
     style="opacity:0.4789272;fill:none;fill-opacity:1;fill-rule:nonzero;stroke:url(#linearGradient3383);stroke-width:0.99145353;stroke-linecap:round;stroke-linejoin:miter;stroke-miterlimit:4;stroke-dasharray:none;stroke-opacity:0.90494301"
     id="path3365"
     inkscape:href="#path1066"
     d="M 23.0625,2.90625 C 23.927155,6.5521932 24.427942,10.725353 23.96875,15.03125 C 23.451042,19.885853 21.809382,24.622829 18.65625,28.1875 C 18.925836,28.297273 18.948287,28.362108 19.40625,28.40625 C 20.362534,28.498424 21.603981,28.405299 22.875,27.9375 C 25.417037,27.001903 28.080782,24.733136 29.125,19.65625 C 30.085076,14.98845 28.736051,10.650484 26.78125,7.34375 C 25.80385,5.6903831 24.694976,4.3231284 23.65625,3.3125 C 23.410852,3.0737404 23.296678,3.1005386 23.0625,2.90625 z "
     transform="matrix(1.0086989,0,0,1.0085415,-0.1978901,-0.1810736)" />
  <g
     inkscape:label="Layer 1"
     id="layer1"
     transform="matrix(0.5576362,0,-0.1458015,0.599642,5.400748,3.8128723)">
    <path
       style="fill:url(#linearGradient3276);fill-rule:nonzero;stroke:none;stroke-miterlimit:4"
       d="M 24.262486,2.8333435 C 12.714866,2.8333435 3.4291519,12.119058 3.4291519,23.666677 C 3.4291519,35.214297 12.714866,44.500012 24.262486,44.500012 C 35.810106,44.500012 45.095821,35.214297 45.095821,23.666677 C 45.095821,12.119058 35.810106,2.8333435 24.262486,2.8333435 L 24.262486,2.8333435 z M 24.262486,28.666678 C 21.524391,28.666678 19.262486,26.404773 19.262486,23.666677 C 19.262486,20.928582 21.524391,18.666677 24.262486,18.666677 C 27.000581,18.666677 29.262486,20.928582 29.262486,23.666677 C 29.262486,26.404773 27.000581,28.666678 24.262486,28.666678 z "
       id="path3040"
       inkscape:r_cx="true"
       inkscape:r_cy="true" />
    <path
       style="fill:url(#linearGradient3278);fill-rule:nonzero;stroke:#808080;stroke-width:1.72933304;stroke-miterlimit:4;stroke-opacity:1"
       d="M 24.262486,2.8333431 C 12.714866,2.8333431 3.429152,12.119058 3.429152,23.666677 C 3.429152,35.214297 12.714866,44.500012 24.262486,44.500012 C 35.810106,44.500012 45.095821,35.214297 45.095821,23.666677 C 45.095821,12.119058 35.810106,2.8333431 24.262486,2.8333431 L 24.262486,2.8333431 z M 24.771674,29.440772 C 21.293512,30.006469 18.983668,26.436153 19.156001,23.537818 C 19.316553,20.837631 21.53511,17.837424 24.273205,17.837424 C 27.0113,17.837424 29.708291,21.103681 29.708291,23.841776 C 29.708291,26.579872 27.356143,29.020427 24.771674,29.440772 z "
       id="path3049"
       inkscape:r_cx="true"
       inkscape:r_cy="true"
       sodipodi:nodetypes="cssscccssss" />
    <path
       sodipodi:nodetypes="csccssccsc"
       id="path3531"
       d="M 23.600682,3.6517687 C 12.874134,4.062357 4.3966019,12.975344 4.4382066,23.965637 C 4.4570673,28.947904 6.2158809,33.476381 9.1398186,37.000623 L 19.358491,28.255743 C 18.636171,27.402683 17.833676,24.235955 17.829146,23.039303 C 17.816164,19.609842 21.196277,17.186665 24.449178,17.186665 C 25.928472,17.186665 28.390252,18.42061 29.278969,19.505845 L 39.806235,10.961107 C 36.125594,6.4859679 30.563143,3.6517687 24.351048,3.6517687 C 24.091101,3.6517687 23.858119,3.6419146 23.600682,3.6517687 z "
       style="fill:url(#linearGradient3280);fill-opacity:1;fill-rule:nonzero;stroke:none;stroke-miterlimit:4;stroke-opacity:1" />
    <path
       style="opacity:0.51098902;fill:#eeeeec;fill-rule:nonzero;stroke:none;stroke-miterlimit:4"
       d="M 24.174765,13.653359 C 18.847824,13.653359 14.691331,18.201529 14.757936,23.659328 C 14.826129,29.247081 19.215931,33.6653 24.418988,33.6653 C 29.745928,33.6653 33.902423,29.117132 33.835815,23.659328 C 33.767624,18.07158 29.377823,13.653359 24.174765,13.653359 L 24.174765,13.653359 z M 25.028441,30.296347 C 21.344807,31.321506 17.994674,26.881151 18.053899,23.622478 C 18.108105,20.639982 21.114959,16.875452 24.397465,17.022314 C 27.277074,17.15115 30.533369,20.670532 30.569843,23.659328 C 30.606318,26.648128 27.877734,30.296347 25.028441,30.296347 z "
       id="path3051"
       inkscape:r_cx="true"
       inkscape:r_cy="true"
       sodipodi:nodetypes="cssscccsssc" />
    <path
       sodipodi:nodetypes="cccccc"
       id="path5264"
       d="M 24.269731,4.4812202 C 13.697124,4.4812202 5.2075404,13.029179 5.222587,23.65933 C 5.2376334,34.289482 13.751416,42.837438 24.324021,42.837438 C 34.896628,42.837438 43.386212,34.289482 43.371166,23.65933 C 43.35612,13.029179 34.842337,4.4812202 24.269731,4.4812202 L 24.269731,4.4812202 z "
       style="opacity:0.54644811;fill:none;fill-rule:nonzero;stroke:url(#linearGradient3282);stroke-width:1.72933292;stroke-miterlimit:4;stroke-opacity:1"
       inkscape:r_cx="true"
       inkscape:r_cy="true" />
    <path
       transform="matrix(1.1475513,0,2.4167216e-2,1.239982,-4.1989226,-7.2542161)"
       d="M 30.405591 24.930641 A 6.0987959 6.0987959 0 1 1  18.207999,24.930641 A 6.0987959 6.0987959 0 1 1  30.405591 24.930641 z"
       sodipodi:ry="6.0987959"
       sodipodi:rx="6.0987959"
       sodipodi:cy="24.930641"
       sodipodi:cx="24.306795"
       id="path6026"
       style="opacity:0.67213111;color:#000000;fill:none;fill-opacity:0.31638417;fill-rule:nonzero;stroke:url(#linearGradient3284);stroke-width:1.34902287;stroke-linecap:butt;stroke-linejoin:miter;marker:none;marker-start:none;marker-mid:none;marker-end:none;stroke-miterlimit:4;stroke-dashoffset:0;stroke-opacity:1;visibility:visible;display:inline;overflow:visible"
       sodipodi:type="arc"
       inkscape:r_cx="true"
       inkscape:r_cy="true" />
  </g>
  <path
     style="opacity:0.9;fill:url(#linearGradient3341);fill-opacity:1;fill-rule:evenodd;stroke:url(#linearGradient3363);stroke-width:0.99999988;stroke-linecap:round;stroke-linejoin:round;stroke-miterlimit:4;stroke-dasharray:none;stroke-opacity:1"
     d="M 15.532148,2.4558059 C 15.491931,5.4728996 14.659315,7.4098997 13.767859,9.4939766 C 12.153593,13.267858 11.563102,17.18991 15.180571,19.500001 C 18.761169,18.605122 24.791137,10.182648 15.532148,2.4558059 z "
     id="path1067"
     sodipodi:nodetypes="cscc" />
  <path
     style="opacity:0.9;fill:url(#linearGradient3303);fill-opacity:1;fill-rule:nonzero;stroke:url(#linearGradient3355);stroke-width:0.99999994;stroke-linecap:square;stroke-linejoin:round;stroke-miterlimit:4;stroke-dasharray:none;stroke-opacity:1"
     d="M 9.1032609,20.243471 C 10.323726,23.157095 12.328382,24.189999 13.329287,27.246135 C 13.750492,28.437126 13.370802,29.765092 12.426811,30.670595 C 11.440439,31.61675 10.1608,31.621843 8.8672297,31.330996 C 5.9459955,30.674181 4.2295652,28.436188 3.3636726,25.809907 C 0.2022096,16.221086 6.4736778,8.3028846 12.487192,1.544194 C 10.622891,7.5772988 7.0797589,13.566097 9.1032609,20.243471 z "
     id="path1064"
     sodipodi:nodetypes="ccssscc" />
  <path
     sodipodi:type="inkscape:offset"
     inkscape:radius="-0.97398376"
     inkscape:original="M 15.53125 2.46875 C 15.491033 5.4858436 14.672706 7.4159231 13.78125 9.5 C 12.166984 13.273881 11.570031 17.189909 15.1875 19.5 C 18.768098 18.60512 24.790239 10.195592 15.53125 2.46875 z "
     xlink:href="#path1067"
     style="opacity:0.4789272;fill:none;fill-opacity:1;fill-rule:evenodd;stroke:url(#linearGradient3339);stroke-width:0.99007136;stroke-linecap:butt;stroke-linejoin:miter;stroke-miterlimit:4;stroke-dasharray:none;stroke-opacity:1"
     id="path3329"
     inkscape:href="#path1067"
     d="M 16.1875,4.5625 C 15.874272,6.5879187 15.353107,8.3189219 14.6875,9.875 C 13.911201,11.689855 13.413193,13.507328 13.5,15 C 13.576262,16.311335 14.137993,17.356226 15.3125,18.28125 C 15.903747,18.03941 16.622121,17.680021 17.3125,16.90625 C 18.136139,15.983122 18.863295,14.733047 19.21875,13.3125 C 19.842345,10.820351 19.275401,7.7617323 16.1875,4.5625 z "
     transform="matrix(1.0127859,0,0,1.007278,-0.1626908,-1.1280928e-2)" />
  <path
     sodipodi:type="inkscape:offset"
     inkscape:radius="-1.0358722"
     inkscape:original="M 12.5 1.53125 C 6.4864858 8.2899406 0.21353711 16.223678 3.375 25.8125 C 4.2408926 28.438781 5.953766 30.686935 8.875 31.34375 C 10.16857 31.634597 11.451128 31.602405 12.4375 30.65625 C 13.381491 29.750747 13.764955 28.44099 13.34375 27.25 C 12.342845 24.193864 10.314215 23.163624 9.09375 20.25 C 7.070248 13.572626 10.635699 7.5643548 12.5 1.53125 z "
     xlink:href="#path1064"
     style="fill:none;fill-opacity:1;fill-rule:nonzero;stroke:url(#linearGradient3327);stroke-width:0.99778439;stroke-linecap:square;stroke-linejoin:miter;stroke-miterlimit:7;stroke-dasharray:none;stroke-opacity:1;opacity:0.4789272"
     id="path3293"
     inkscape:href="#path1064"
     d="M 9.625,6.59375 C 8.0028087,8.6664979 6.5081636,10.8225 5.4375,13.0625 C 3.5919799,16.923625 2.8534165,20.979769 4.34375,25.5 C 5.1374848,27.907424 6.5815324,29.778899 9.09375,30.34375 C 10.228388,30.598863 11.047636,30.550001 11.71875,29.90625 C 12.403757,29.249171 12.650714,28.373354 12.375,27.59375 C 12.364362,27.583557 12.353943,27.573138 12.34375,27.5625 C 11.897008,26.19843 11.273948,25.333614 10.5,24.34375 C 9.726052,23.353886 8.7974421,22.261575 8.125,20.65625 C 8.113098,20.625515 8.1026694,20.594229 8.09375,20.5625 C 6.5578485,15.494164 8.0121019,10.946528 9.625,6.59375 z "
     transform="matrix(1,0,0,1.004446,1.4314019e-2,-0.123066)" />
  <path
     style="opacity:0.95785441;fill:url(#linearGradient3199);fill-opacity:1;fill-rule:evenodd;stroke:none;stroke-width:1px;stroke-linecap:butt;stroke-linejoin:miter;stroke-opacity:1"
     d="M 6.2588513,15 C 2.6769978,24.486544 7.5909851,29.62868 10.413363,28.938419 C 13.332156,25.353929 5.3069213,24.067922 6.2588513,15 z "
     id="path2220"
     sodipodi:nodetypes="ccc" />
  <path
     style="opacity:0.95785441;fill:url(#linearGradient3203);fill-opacity:1;fill-rule:evenodd;stroke:none;stroke-width:0.99999994;stroke-linecap:round;stroke-linejoin:round;stroke-miterlimit:4;stroke-dasharray:none;stroke-opacity:1"
     d="M 16.996553,8 C 16.7445,10.983074 13.388137,13.327436 15.999665,16 C 17.191465,15.677013 19.23856,12.019331 16.996553,8 z "
     id="path3201"
     sodipodi:nodetypes="ccc" />
</svg>
