<?xml version="1.0" encoding="UTF-8" standalone="no"?>
<!-- Created with Inkscape (http://www.inkscape.org/) -->
<svg
   xmlns:dc="http://purl.org/dc/elements/1.1/"
   xmlns:cc="http://web.resource.org/cc/"
   xmlns:rdf="http://www.w3.org/1999/02/22-rdf-syntax-ns#"
   xmlns:svg="http://www.w3.org/2000/svg"
   xmlns="http://www.w3.org/2000/svg"
   xmlns:xlink="http://www.w3.org/1999/xlink"
   xmlns:sodipodi="http://sodipodi.sourceforge.net/DTD/sodipodi-0.dtd"
   xmlns:inkscape="http://www.inkscape.org/namespaces/inkscape"
   id="svg1975"
   sodipodi:version="0.32"
   inkscape:version="0.45"
   width="48"
   height="48"
   version="1.0"
   sodipodi:docbase="/home/ulisse/Desktop/Brasero/scalable"
   sodipodi:docname="brasero.svg"
   inkscape:output_extension="org.inkscape.output.svg.inkscape"
   sodipodi:modified="true">
  <metadata
     id="metadata1980">
    <rdf:RDF>
      <cc:Work
         rdf:about="">
        <dc:format>image/svg+xml</dc:format>
        <dc:type
           rdf:resource="http://purl.org/dc/dcmitype/StillImage" />
        <dc:contributor>
          <cc:Agent>
            <dc:title>Philippe Rouquier
Jakub Steiner
Andreas Nilsson</dc:title>
          </cc:Agent>
        </dc:contributor>
        <dc:creator>
          <cc:Agent>
            <dc:title>Ulisse Perusin</dc:title>
          </cc:Agent>
        </dc:creator>
        <dc:title>Brasero</dc:title>
        <cc:license
           rdf:resource="http://creativecommons.org/licenses/GPL/2.0/" />
      </cc:Work>
      <cc:License
         rdf:about="http://creativecommons.org/licenses/GPL/2.0/">
        <cc:permits
           rdf:resource="http://web.resource.org/cc/Reproduction" />
        <cc:permits
           rdf:resource="http://web.resource.org/cc/Distribution" />
        <cc:requires
           rdf:resource="http://web.resource.org/cc/Notice" />
        <cc:permits
           rdf:resource="http://web.resource.org/cc/DerivativeWorks" />
        <cc:requires
           rdf:resource="http://web.resource.org/cc/ShareAlike" />
        <cc:requires
           rdf:resource="http://web.resource.org/cc/SourceCode" />
      </cc:License>
    </rdf:RDF>
  </metadata>
  <defs
     id="defs1978">
    <linearGradient
       inkscape:collect="always"
       id="linearGradient3193">
      <stop
         style="stop-color:#ff4d19;stop-opacity:1;"
         offset="0"
         id="stop3195" />
      <stop
         style="stop-color:#ff4d19;stop-opacity:0.17490494"
         offset="1"
         id="stop3197" />
    </linearGradient>
    <linearGradient
       id="linearGradient3403"
       inkscape:collect="always">
      <stop
         id="stop3405"
         offset="0"
         style="stop-color:#f5a200;stop-opacity:0.88973385" />
      <stop
         id="stop3407"
         offset="1"
         style="stop-color:#f55f00;stop-opacity:1" />
    </linearGradient>
    <linearGradient
       id="linearGradient3349">
      <stop
         style="stop-color:#f5a200;stop-opacity:1"
         offset="0"
         id="stop3351" />
      <stop
         style="stop-color:#f54e00;stop-opacity:1;"
         offset="1"
         id="stop3353" />
    </linearGradient>
    <linearGradient
       id="linearGradient3343"
       inkscape:collect="always">
      <stop
         id="stop3345"
         offset="0"
         style="stop-color:#fce94f;stop-opacity:0.8326996" />
      <stop
         id="stop3347"
         offset="1"
         style="stop-color:#fec446;stop-opacity:1" />
    </linearGradient>
    <linearGradient
       inkscape:collect="always"
       id="linearGradient3321">
      <stop
         style="stop-color:#ffffff;stop-opacity:1;"
         offset="0"
         id="stop3323" />
      <stop
         style="stop-color:#ffffff;stop-opacity:0.16862746"
         offset="1"
         id="stop3325" />
    </linearGradient>
    <linearGradient
       id="linearGradient3297">
      <stop
         style="stop-color:#fce94f;stop-opacity:0.90494299"
         offset="0"
         id="stop3299" />
      <stop
         style="stop-color:#ffaf45;stop-opacity:1;"
         offset="1"
         id="stop3301" />
    </linearGradient>
    <linearGradient
       id="linearGradient23419"
       inkscape:collect="always">
      <stop
         id="stop23421"
         offset="0"
         style="stop-color:#000000;stop-opacity:1;" />
      <stop
         id="stop23423"
         offset="1"
         style="stop-color:#000000;stop-opacity:0;" />
    </linearGradient>
    <linearGradient
       y2="34.3075"
       x2="32.511"
       y1="11.1885"
       x1="14.9966"
       gradientUnits="userSpaceOnUse"
       id="aigrd1">
      <stop
         id="stop3034"
         style="stop-color:#EBEBEB"
         offset="0" />
      <stop
         id="stop3036"
         style="stop-color:#FFFFFF"
         offset="0.5" />
      <stop
         id="stop3038"
         style="stop-color:#EBEBEB"
         offset="1" />
    </linearGradient>
    <linearGradient
       y2="14.2033"
       x2="35.3912"
       y1="32.4165"
       x1="12.2744"
       gradientUnits="userSpaceOnUse"
       id="aigrd2">
      <stop
         id="stop3043"
         style="stop-color:#FBFBFB"
         offset="0" />
      <stop
         id="stop3045"
         style="stop-color:#B6B6B6"
         offset="0.5" />
      <stop
         id="stop3047"
         style="stop-color:#E4E4E4"
         offset="1" />
    </linearGradient>
    <linearGradient
       id="linearGradient6036"
       inkscape:collect="always">
      <stop
         id="stop6038"
         offset="0"
         style="stop-color:#ffffff;stop-opacity:1;" />
      <stop
         id="stop6040"
         offset="1"
         style="stop-color:#ffffff;stop-opacity:0;" />
    </linearGradient>
    <linearGradient
       id="linearGradient6028"
       inkscape:collect="always">
      <stop
         id="stop6030"
         offset="0"
         style="stop-color:#ffffff;stop-opacity:1;" />
      <stop
         id="stop6032"
         offset="1"
         style="stop-color:#ffffff;stop-opacity:0;" />
    </linearGradient>
    <linearGradient
       id="linearGradient4409"
       inkscape:collect="always">
      <stop
         id="stop4411"
         offset="0"
         style="stop-color:#ffffff;stop-opacity:1;" />
      <stop
         id="stop4413"
         offset="1"
         style="stop-color:#ffffff;stop-opacity:0;" />
    </linearGradient>
    <radialGradient
       inkscape:collect="always"
       xlink:href="#linearGradient23419"
       id="radialGradient3250"
       gradientUnits="userSpaceOnUse"
       gradientTransform="matrix(1,0,0,0.25,0,31.22703)"
       cx="23.334524"
       cy="41.63604"
       fx="23.334524"
       fy="41.63604"
       r="22.627417" />
    <linearGradient
       inkscape:collect="always"
       xlink:href="#aigrd1"
       id="linearGradient3276"
       gradientUnits="userSpaceOnUse"
       gradientTransform="matrix(1.190476,0,0,1.190476,-4.308944,-3.833323)"
       x1="14.9966"
       y1="11.1885"
       x2="32.511"
       y2="34.3075" />
    <linearGradient
       inkscape:collect="always"
       xlink:href="#aigrd2"
       id="linearGradient3278"
       gradientUnits="userSpaceOnUse"
       gradientTransform="matrix(1.190476,0,0,1.190476,-4.308944,-3.833324)"
       x1="12.2744"
       y1="32.4165"
       x2="35.3912"
       y2="14.2033" />
    <linearGradient
       inkscape:collect="always"
       xlink:href="#linearGradient4409"
       id="linearGradient3280"
       gradientUnits="userSpaceOnUse"
       gradientTransform="translate(0.5,-0.353553)"
       x1="25.985928"
       y1="24.919628"
       x2="15.889072"
       y2="11.669628" />
    <linearGradient
       inkscape:collect="always"
       xlink:href="#linearGradient6036"
       id="linearGradient3282"
       gradientUnits="userSpaceOnUse"
       gradientTransform="matrix(0.9927645,0,6.9739463e-4,0.9954316,8.1878551e-2,-1.2191114)"
       x1="10.501720"
       y1="3.6100161"
       x2="48.798885"
       y2="54.698483" />
    <linearGradient
       inkscape:collect="always"
       xlink:href="#linearGradient6028"
       id="linearGradient3284"
       gradientUnits="userSpaceOnUse"
       x1="28.702885"
       y1="31.494707"
       x2="17.742729"
       y2="18.366575" />
    <linearGradient
       inkscape:collect="always"
       xlink:href="#linearGradient3297"
       id="linearGradient3303"
       x1="8.0008059"
       y1="19.354666"
       x2="11.765572"
       y2="40.504414"
       gradientUnits="userSpaceOnUse"
       gradientTransform="matrix(0.9886337,0,0,0.9829993,0.2213478,2.6636099e-2)" />
    <linearGradient
       inkscape:collect="always"
       xlink:href="#linearGradient3321"
       id="linearGradient3327"
       x1="7.0854101"
       y1="20.983158"
       x2="14.014328"
       y2="42.130581"
       gradientUnits="userSpaceOnUse" />
    <linearGradient
       inkscape:collect="always"
       xlink:href="#linearGradient3321"
       id="linearGradient3339"
       x1="22.803511"
       y1="8.6696863"
       x2="24.451988"
       y2="21.817261"
       gradientUnits="userSpaceOnUse" />
    <linearGradient
       inkscape:collect="always"
       xlink:href="#linearGradient3343"
       id="linearGradient3341"
       x1="23.41287"
       y1="17.026258"
       x2="23.35877"
       y2="23.209305"
       gradientUnits="userSpaceOnUse" />
    <linearGradient
       inkscape:collect="always"
       xlink:href="#linearGradient3349"
       id="linearGradient3355"
       x1="11.391339"
       y1="16.274387"
       x2="16.147627"
       y2="35.156826"
       gradientUnits="userSpaceOnUse"
       gradientTransform="matrix(0.9886337,0,0,0.9829993,0.2213478,2.6636099e-2)" />
    <linearGradient
       inkscape:collect="always"
       xlink:href="#linearGradient3403"
       id="linearGradient3363"
       x1="24.456329"
       y1="10.06987"
       x2="27.001125"
       y2="29.433199"
       gradientUnits="userSpaceOnUse" />
    <linearGradient
       inkscape:collect="always"
       xlink:href="#linearGradient3321"
       id="linearGradient3383"
       x1="35.672604"
       y1="9.6719131"
       x2="38.559429"
       y2="36.801826"
       gradientUnits="userSpaceOnUse" />
    <linearGradient
       inkscape:collect="always"
       xlink:href="#linearGradient3349"
       id="linearGradient3391"
       x1="34.352047"
       y1="17.267895"
       x2="37.590771"
       y2="33.67453"
       gradientUnits="userSpaceOnUse" />
    <linearGradient
       inkscape:collect="always"
       xlink:href="#linearGradient3297"
       id="linearGradient3401"
       x1="38.88414"
       y1="12.518509"
       x2="41.335243"
       y2="31.996395"
       gradientUnits="userSpaceOnUse" />
    <linearGradient
       inkscape:collect="always"
       xlink:href="#linearGradient3193"
       id="linearGradient3199"
       x1="7.7349529"
       y1="31.255808"
       x2="15.290119"
       y2="45.573547"
       gradientUnits="userSpaceOnUse"
       gradientTransform="matrix(1.0014694,0,0,0.9992208,2.3526071e-2,-6.9317926e-2)" />
    <linearGradient
       inkscape:collect="always"
       xlink:href="#linearGradient3193"
       id="linearGradient3203"
       gradientUnits="userSpaceOnUse"
       x1="24.53307"
       y1="9.3393259"
       x2="22.546782"
       y2="32.045216"
       gradientTransform="matrix(0.4074025,0,0,0.5170949,14.505166,9.293904)" />
    <linearGradient
       inkscape:collect="always"
       xlink:href="#linearGradient3193"
       id="linearGradient3209"
       gradientUnits="userSpaceOnUse"
       gradientTransform="matrix(0.488883,0,0,0.4906454,20.0062,26.122628)"
       x1="24.533068"
       y1="9.1633615"
       x2="20.155373"
       y2="30.322044" />
  </defs>
  <sodipodi:namedview
     inkscape:window-height="931"
     inkscape:window-width="1280"
     inkscape:pageshadow="2"
     inkscape:pageopacity="0.0"
     guidetolerance="10.0"
     gridtolerance="10.0"
     objecttolerance="10.0"
     borderopacity="0.4"
     bordercolor="#666666"
     pagecolor="#ffffff"
     id="base"
     inkscape:zoom="11.313708"
     inkscape:cx="23.785064"
     inkscape:cy="17.182619"
     inkscape:window-x="0"
     inkscape:window-y="23"
     inkscape:current-layer="svg1975"
     width="48px"
     height="48px"
     inkscape:showpageshadow="false"
     borderlayer="true"
     showgrid="false"
     gridspacingx="0.5px"
     gridspacingy="0.5px"
     gridempspacing="2" />
  <path
     transform="matrix(0.7954952,0,0,1.0606602,0.4374994,-2.1616899)"
     inkscape:r_cy="true"
     inkscape:r_cx="true"
     d="M 45.961941 41.63604 A 22.627417 5.6568542 0 1 1  0.70710754,41.63604 A 22.627417 5.6568542 0 1 1  45.961941 41.63604 z"
     sodipodi:ry="5.6568542"
     sodipodi:rx="22.627417"
     sodipodi:cy="41.63604"
     sodipodi:cx="23.334524"
     id="path23417"
     style="opacity:0.55;color:#000000;fill:url(#radialGradient3250);fill-opacity:1;fill-rule:evenodd;stroke:none;stroke-width:2;stroke-linecap:butt;stroke-linejoin:miter;marker:none;marker-start:none;marker-mid:none;marker-end:none;stroke-miterlimit:4;stroke-dasharray:none;stroke-dashoffset:0;stroke-opacity:1;visibility:visible;display:inline;overflow:visible"
     sodipodi:type="arc" />
  <path
     style="opacity:0.9;fill:url(#linearGradient3401);fill-opacity:1.0;fill-rule:nonzero;stroke:url(#linearGradient3391);stroke-width:0.99999994;stroke-linecap:round;stroke-linejoin:round;stroke-miterlimit:4;stroke-dasharray:none;stroke-opacity:1"
     d="M 24.842902,43.059362 C 26.823778,45.739132 41.597001,46.1545 44.980073,29.857677 C 48.116004,14.751373 36.004295,1.9294949 31.506816,0.49837724 C 35.50718,12.265341 35.840532,32.77369 24.842902,43.059362 z "
     id="path1066"
     sodipodi:nodetypes="cscc" />
  <path
     style="opacity:0.94636015;fill:url(#linearGradient3209);fill-opacity:1;fill-rule:evenodd;stroke:none;stroke-width:0.99999994;stroke-linecap:round;stroke-linejoin:round;stroke-miterlimit:4;stroke-dasharray:none;stroke-opacity:1"
     d="M 40.985273,22.945398 C 40.479414,27.191131 25.744201,37.195252 30.985418,40.999045 C 36.736063,41.091911 41.728375,34.404316 40.985273,22.945398 z "
     id="path3207"
     sodipodi:nodetypes="ccc" />
  <path
     sodipodi:type="inkscape:offset"
     inkscape:radius="-1.0498953"
     inkscape:original="M 31.5 0.5 C 35.500363 12.266964 35.84138 32.776828 24.84375 43.0625 C 26.824627 45.742271 41.585678 46.140573 44.96875 29.84375 C 48.104682 14.737446 35.997479 1.9311177 31.5 0.5 z "
     xlink:href="#path1066"
     style="opacity:0.9;fill:none;fill-opacity:1;fill-rule:nonzero;stroke:url(#linearGradient3383);stroke-width:1;stroke-linecap:round;stroke-linejoin:miter;stroke-miterlimit:4;stroke-dasharray:none;stroke-opacity:0.90494301"
     id="path3365"
     inkscape:href="#path1066"
     d="M 33.3125,2.65625 C 35.340562,8.2632418 37.158296,14.633103 37.34375,21.0625 C 37.554045,28.353103 35.729032,35.614416 29.96875,41 C 29.948269,41.011107 29.927424,41.02153 29.90625,41.03125 C 29.592176,41.289838 29.623411,41.355951 29.625,41.375 C 29.626589,41.394049 29.68193,41.540396 29.96875,41.75 C 30.54239,42.169208 31.944526,42.578906 33.625,42.34375 C 36.985947,41.873439 41.574813,39.141983 44.03125,30.5625 C 45.76256,23.35416 42.765873,15.545275 39.15625,9.78125 C 37.351439,6.8992373 35.38606,4.5478574 33.875,3.09375 C 33.639821,2.8674351 33.523598,2.836863 33.3125,2.65625 z "
     transform="translate(-3.5601116e-2,-0.15625)" />
  <g
     inkscape:label="Layer 1"
     id="layer1"
     transform="matrix(0.8363655,0,-0.218679,0.8880008,7.3766876,5.9839719)">
    <path
       style="fill:url(#linearGradient3276);fill-rule:nonzero;stroke:none;stroke-miterlimit:4"
       d="M 24.262486,2.8333435 C 12.714866,2.8333435 3.4291519,12.119058 3.4291519,23.666677 C 3.4291519,35.214297 12.714866,44.500012 24.262486,44.500012 C 35.810106,44.500012 45.095821,35.214297 45.095821,23.666677 C 45.095821,12.119058 35.810106,2.8333435 24.262486,2.8333435 L 24.262486,2.8333435 z M 24.262486,28.666678 C 21.524391,28.666678 19.262486,26.404773 19.262486,23.666677 C 19.262486,20.928582 21.524391,18.666677 24.262486,18.666677 C 27.000581,18.666677 29.262486,20.928582 29.262486,23.666677 C 29.262486,26.404773 27.000581,28.666678 24.262486,28.666678 z "
       id="path3040"
       inkscape:r_cx="true"
       inkscape:r_cy="true" />
    <path
       style="fill:url(#linearGradient3278);fill-rule:nonzero;stroke:#808080;stroke-width:1.16036713;stroke-miterlimit:4;stroke-opacity:1"
       d="M 24.262486,2.8333431 C 12.714866,2.8333431 3.429152,12.119058 3.429152,23.666677 C 3.429152,35.214297 12.714866,44.500012 24.262486,44.500012 C 35.810106,44.500012 45.095821,35.214297 45.095821,23.666677 C 45.095821,12.119058 35.810106,2.8333431 24.262486,2.8333431 L 24.262486,2.8333431 z M 24.320859,28.777464 C 21.582764,28.777464 19.60044,26.460166 19.60044,23.72207 C 19.60044,20.983975 21.539314,18.611284 24.277409,18.611284 C 27.015504,18.611284 28.91685,20.956279 28.91685,23.694374 C 28.91685,26.43247 27.058954,28.777464 24.320859,28.777464 z "
       id="path3049"
       inkscape:r_cx="true"
       inkscape:r_cy="true"
       sodipodi:nodetypes="cssscccsssc" />
    <path
       sodipodi:nodetypes="csccssccsc"
       id="path3531"
       d="M 23.410538,3.4587825 C 12.648847,3.864693 4.1109275,12.676135 4.1109275,23.541217 C 4.1109275,28.466722 5.858051,32.943607 8.7777601,36.427697 L 19.895113,27.017403 C 19.173772,26.174062 18.845878,24.974235 18.845878,23.791217 C 18.845878,20.400827 21.150167,18.223842 24.413253,18.223842 C 25.897178,18.223842 27.38434,18.897269 28.271719,19.97014 L 39.639072,10.684846 C 35.963901,6.2606919 30.394797,3.4587825 24.163253,3.4587825 C 23.902492,3.4587825 23.668819,3.4490406 23.410538,3.4587825 z "
       style="fill:url(#linearGradient3280);fill-opacity:1;fill-rule:nonzero;stroke:none;stroke-miterlimit:4;stroke-opacity:1" />
    <path
       style="opacity:0.51098902;fill:#eeeeec;fill-rule:nonzero;stroke:none;stroke-miterlimit:4"
       d="M 24.190122,13.531551 C 18.701177,13.531551 14.397458,18.138427 14.441109,23.666676 C 14.485802,29.326554 18.988888,33.801803 24.350182,33.801803 C 29.839127,33.801803 34.142846,29.194928 34.099193,23.666676 C 34.054501,18.006801 29.551417,13.531551 24.190122,13.531551 L 24.190122,13.531551 z M 24.313804,29.194928 C 21.377857,29.194928 18.932762,26.694054 18.908857,23.666676 C 18.884952,20.639301 21.290552,18.138427 24.2265,18.138427 C 27.162447,18.138427 29.60754,20.639301 29.631445,23.666676 C 29.65535,26.694054 27.249751,29.194928 24.313804,29.194928 z "
       id="path3051"
       inkscape:r_cx="true"
       inkscape:r_cy="true" />
    <path
       sodipodi:nodetypes="cccccc"
       id="path5264"
       d="M 24.256346,3.9594874 C 13.362201,3.9594874 4.6081146,12.743265 4.6157676,23.666677 C 4.6234205,34.590089 13.389815,43.373864 24.283959,43.373864 C 35.178104,43.373864 43.932191,34.590089 43.924538,23.666677 C 43.916885,12.743265 35.150491,3.9594874 24.256346,3.9594874 L 24.256346,3.9594874 z "
       style="opacity:0.54644811;fill:none;fill-rule:nonzero;stroke:url(#linearGradient3282);stroke-width:1.16036701;stroke-miterlimit:4;stroke-opacity:1"
       inkscape:r_cx="true"
       inkscape:r_cy="true" />
    <path
       transform="matrix(0.9547477,0,1.7576729e-2,1.0219721,0.6250959,-1.8117432)"
       d="M 30.405591 24.930641 A 6.0987959 6.0987959 0 1 1  18.207999,24.930641 A 6.0987959 6.0987959 0 1 1  30.405591 24.930641 z"
       sodipodi:ry="6.0987959"
       sodipodi:rx="6.0987959"
       sodipodi:cy="24.930641"
       sodipodi:cx="24.306795"
       id="path6026"
       style="opacity:0.67213111;color:#000000;fill:none;fill-opacity:0.31638417;fill-rule:nonzero;stroke:url(#linearGradient3284);stroke-width:1.09311533;stroke-linecap:butt;stroke-linejoin:miter;marker:none;marker-start:none;marker-mid:none;marker-end:none;stroke-miterlimit:4;stroke-dashoffset:0;stroke-opacity:1;visibility:visible;display:inline;overflow:visible"
       sodipodi:type="arc"
       inkscape:r_cx="true"
       inkscape:r_cy="true" />
  </g>
  <path
     style="opacity:0.9;fill:url(#linearGradient3341);fill-opacity:1.0;fill-rule:evenodd;stroke:url(#linearGradient3363);stroke-width:0.99999994;stroke-linecap:round;stroke-linejoin:round;stroke-miterlimit:4;stroke-dasharray:none;stroke-opacity:1"
     d="M 23.523131,3.5013393 C 23.462368,7.9273273 21.670191,10.704018 20.323293,13.761298 C 17.884308,19.29747 16.992139,25.051006 22.457754,28.43984 C 27.717951,27.163417 36.994525,14.962115 23.523131,3.5013393 z "
     id="path1067"
     sodipodi:nodetypes="cscc" />
  <path
     style="fill:url(#linearGradient3303);fill-opacity:1;fill-rule:nonzero;stroke:url(#linearGradient3355);stroke-width:0.99999988;stroke-linecap:square;stroke-linejoin:round;stroke-miterlimit:4;stroke-dasharray:none;stroke-opacity:1;opacity:0.9"
     d="M 12.689497,29.640258 C 14.572798,34.004213 17.666184,35.551268 19.210681,40.128671 C 19.860643,41.912506 19.274743,43.901501 17.81807,45.257739 C 16.295998,46.674865 14.321386,46.682494 12.325277,46.24687 C 7.8175182,45.263112 5.1688933,41.911101 3.8327337,37.977525 C -1.0457223,23.615634 8.359001,11.689762 17.638459,1.5667675 C 14.759596,10.602997 9.0464112,19.639059 12.689497,29.640258 z "
     id="path1064"
     sodipodi:nodetypes="ccssscc" />
  <path
     sodipodi:type="inkscape:offset"
     inkscape:radius="-0.97398376"
     inkscape:original="M 23.53125 3.5 C 23.470488 7.9259881 21.659398 10.69272 20.3125 13.75 C 17.873514 19.286172 17.003135 25.048666 22.46875 28.4375 C 27.728947 27.161077 37.002644 14.960776 23.53125 3.5 z "
     xlink:href="#path1067"
     style="opacity:0.9;fill:none;fill-opacity:1;fill-rule:evenodd;stroke:url(#linearGradient3339);stroke-width:1.00124776;stroke-linecap:butt;stroke-linejoin:miter;stroke-miterlimit:4;stroke-dasharray:none;stroke-opacity:1"
     id="path3329"
     inkscape:href="#path1067"
     d="M 24.40625,5.84375 C 24.349521,9.8858299 24.021892,13.595681 22.375,15.78125 C 21.108588,17.46189 19.741197,19.562787 19.46875,21.5625 C 19.209659,23.464182 19.802829,25.325963 22.625,27.3125 C 23.624287,26.9675 24.870616,26.184202 26.03125,24.9375 C 27.329985,23.542457 28.494654,21.683792 29.09375,19.53125 C 30.176104,15.642369 29.339414,10.826784 24.40625,5.84375 z "
     transform="matrix(0.9903016,0,0,1.007278,0.2744912,-1.1280928e-2)" />
  <path
     sodipodi:type="inkscape:offset"
     inkscape:radius="-1.0358722"
     inkscape:original="M 17.625 1.5625 C 8.345542 11.685494 -1.0347059 23.60686 3.84375 37.96875 C 5.1799096 41.902326 7.8047409 45.266244 12.3125 46.25 C 14.308609 46.685624 16.290429 46.667125 17.8125 45.25 C 19.269173 43.893762 19.868711 41.908836 19.21875 40.125 C 17.674253 35.547597 14.570801 33.988954 12.6875 29.625 C 9.0444142 19.623801 14.746138 10.59873 17.625 1.5625 z "
     xlink:href="#path1064"
     style="fill:none;fill-opacity:1;fill-rule:nonzero;stroke:url(#linearGradient3327);stroke-width:1;stroke-linecap:square;stroke-linejoin:miter;stroke-miterlimit:6.4;stroke-dasharray:none;stroke-opacity:1"
     id="path3293"
     inkscape:href="#path1064"
     d="M 15.4375,4.71875 C 13.871256,6.261457 12.146563,8.2363951 10.46875,10.84375 C 7.7548203,15.061252 5.2901386,20.182737 4.125,24.46875 C 3.2008081,27.86843 3.4095799,35.14431 4.625,38.21875 C 6.162502,41.879631 8.8172542,44.465965 12.65625,46.0625 C 12.656407,46.072916 12.656407,46.083334 12.65625,46.09375 C 14.183348,46.750284 15.83029,46.433088 17.09375,45.25 C 18.298909,44.121505 18.755763,42.521033 18.25,41.125 C 17.528357,38.97402 16.418745,37.572955 15.1875,36.0625 C 13.956255,34.552045 12.584823,32.926849 11.65625,30.5 C 9.2103864,24.107667 11.303882,19.108814 12.1875,15.3125 C 13.062267,11.609289 14.226398,8.1797809 15.4375,4.71875 z "
     transform="translate(4.6635953e-2,-0.21875)" />
  <path
     style="opacity:0.94636015;fill:url(#linearGradient3199);fill-opacity:1;fill-rule:evenodd;stroke:none;stroke-width:1px;stroke-linecap:butt;stroke-linejoin:miter;stroke-opacity:1"
     d="M 8.0786854,21 C 2.1641293,35.907427 10.278379,43.987926 14.938847,42.90323 C 19.75852,37.270461 6.5068056,35.249592 8.0786854,21 z "
     id="path2220"
     sodipodi:nodetypes="ccc" />
  <path
     style="opacity:0.94636015;fill:url(#linearGradient3203);fill-opacity:1;fill-rule:evenodd;stroke:none;stroke-width:0.99999994;stroke-linecap:round;stroke-linejoin:round;stroke-miterlimit:4;stroke-dasharray:none;stroke-opacity:1"
     d="M 25.321773,12 C 24.900224,16.47461 19.286834,19.991154 23.654515,24 C 25.647755,23.523348 29.071445,20.054969 25.321773,12 z "
     id="path3201"
     sodipodi:nodetypes="ccc" />
</svg>
